<?xml version="1.0" standalone="no"?>
<!DOCTYPE svg PUBLIC "-//W3C//DTD SVG 20010904//EN"
 "http://www.w3.org/TR/2001/REC-SVG-20010904/DTD/svg10.dtd">
<svg version="1.0" xmlns="http://www.w3.org/2000/svg"
 width="100.000000pt" height="100.000000pt" viewBox="0 0 100.000000 100.000000"
 preserveAspectRatio="xMidYMid meet">

<g transform="translate(0.000000,100.000000) scale(0.100000,-0.100000)"
fill="#000000" stroke="none">
<path d="M46 954 c-14 -14 -16 -69 -16 -454 0 -385 2 -440 16 -454 14 -14 69
-16 454 -16 385 0 440 2 454 16 14 14 16 69 16 454 0 385 -2 440 -16 454 -14
14 -69 16 -454 16 -385 0 -440 -2 -454 -16z m245 -133 c31 -31 36 -59 17 -94
-28 -54 -89 -63 -132 -21 -35 36 -34 77 3 115 38 38 74 38 112 0z m469 -209
c63 -35 75 -73 78 -274 l4 -178 -76 0 -76 0 0 148 c0 173 -7 192 -70 192 -30
0 -43 -6 -59 -26 -19 -24 -21 -40 -21 -170 l0 -144 -75 0 -75 0 0 230 0 230
70 0 c69 0 70 0 70 -27 l0 -26 23 20 c37 34 60 42 117 43 35 0 68 -7 90 -18z
m-450 -222 l0 -230 -75 0 -75 0 0 230 0 230 75 0 75 0 0 -230z"/>
</g>
</svg>
