<?xml version="1.0" standalone="no"?>
<!DOCTYPE svg PUBLIC "-//W3C//DTD SVG 20010904//EN"
 "http://www.w3.org/TR/2001/REC-SVG-20010904/DTD/svg10.dtd">
<svg version="1.0" xmlns="http://www.w3.org/2000/svg"
 width="119.000000pt" height="119.000000pt" viewBox="0 0 119.000000 119.000000"
 preserveAspectRatio="xMidYMid meet">

<g transform="translate(0.000000,119.000000) scale(0.100000,-0.100000)"
fill="#000000" stroke="none">
<path d="M487 1020 c-102 -26 -229 -125 -280 -218 -96 -177 -65 -395 77 -538
54 -53 139 -104 176 -104 17 0 20 6 20 51 0 48 -1 51 -23 45 -41 -10 -97 12
-115 46 -10 17 -29 46 -44 63 -34 39 -34 45 -7 45 12 0 39 -19 63 -44 22 -24
50 -47 62 -50 33 -10 65 7 79 41 l13 31 -40 5 c-54 7 -111 47 -133 94 -29 60
-32 143 -6 196 12 25 21 63 21 89 0 86 16 95 92 54 40 -21 50 -23 100 -14 35
6 74 6 108 0 48 -9 59 -7 106 16 70 34 84 27 84 -43 0 -37 7 -70 21 -97 26
-50 23 -142 -6 -201 -22 -47 -79 -87 -133 -94 l-40 -5 14 -34 c8 -19 14 -67
14 -114 0 -74 2 -80 20 -80 37 0 122 51 176 104 220 221 159 584 -122 723 -66
32 -83 36 -166 39 -51 2 -110 -1 -131 -6z"/>
</g>
</svg>
